<svg width="256" height="60" viewBox="0 0 256 60" fill="none" xmlns="http://www.w3.org/2000/svg">
<path d="M245.443 39.4H235.443L233.923 44H225.683L235.963 15.8H245.003L255.243 44H246.963L245.443 39.4ZM243.483 33.4L240.443 24.28L237.443 33.4H243.483Z" fill="black"/>
<path d="M215.26 44L206.42 31.64V44H198.58V15.8H206.42V27.96L215.18 15.8H224.22L213.86 29.48L224.74 44H215.26Z" fill="black"/>
<path d="M186.236 44L177.396 31.64V44H169.556V15.8H177.396V27.96L186.156 15.8H195.196L184.836 29.48L195.716 44H186.236Z" fill="black"/>
<path d="M165.092 15.8V44H157.252V15.8H165.092Z" fill="black"/>
<path d="M139.287 44.28C136.647 44.28 134.221 43.6667 132.007 42.44C129.794 41.1867 128.034 39.4667 126.727 37.28C125.447 35.0667 124.807 32.5733 124.807 29.8C124.807 27.0267 125.447 24.5467 126.727 22.36C128.034 20.1467 129.794 18.4267 132.007 17.2C134.221 15.9733 136.647 15.36 139.287 15.36C141.954 15.36 144.381 15.9733 146.567 17.2C148.781 18.4267 150.527 20.1467 151.807 22.36C153.087 24.5467 153.727 27.0267 153.727 29.8C153.727 32.5733 153.087 35.0667 151.807 37.28C150.527 39.4667 148.781 41.1867 146.567 42.44C144.354 43.6667 141.927 44.28 139.287 44.28ZM139.287 37C141.287 37 142.861 36.3467 144.007 35.04C145.181 33.7333 145.767 31.9867 145.767 29.8C145.767 27.56 145.181 25.8 144.007 24.52C142.861 23.2133 141.287 22.56 139.287 22.56C137.261 22.56 135.674 23.2133 134.527 24.52C133.381 25.8 132.807 27.56 132.807 29.8C132.807 32.0133 133.381 33.7733 134.527 35.08C135.674 36.36 137.261 37 139.287 37Z" fill="black"/>
<path d="M113.602 44L108.002 33.6H107.162V44H99.322V15.8H111.682C113.949 15.8 115.869 16.2 117.442 17C119.015 17.7733 120.202 18.8533 121.002 20.24C121.802 21.6 122.202 23.1333 122.202 24.84C122.202 26.76 121.669 28.4533 120.602 29.92C119.562 31.36 118.029 32.3867 116.002 33L122.362 44H113.602ZM107.162 28.24H111.042C112.109 28.24 112.909 27.9867 113.442 27.48C113.975 26.9733 114.242 26.24 114.242 25.28C114.242 24.3733 113.962 23.6667 113.402 23.16C112.869 22.6267 112.082 22.36 111.042 22.36H107.162V28.24Z" fill="black"/>
<path d="M85.248 22.08V26.68H94.248V32.64H85.248V37.72H95.448V44H77.408V15.8H95.448V22.08H85.248Z" fill="black"/>
<path d="M72.9214 15.8V44H65.0814V32.68H55.5214V44H47.6814V15.8H55.5214V26.4H65.0814V15.8H72.9214Z" fill="black"/>
<g clip-path="url(#clip0_4_191)">
<path d="M34.8716 41.2062L33.3302 32.5145C33.9653 31.941 34.4449 31.216 34.7244 30.4072C35.0039 29.5983 35.0741 28.7319 34.9285 27.8886C34.783 27.0454 34.4263 26.2526 33.8919 25.5843C33.3574 24.916 32.6625 24.3938 31.8718 24.0664C31.2894 20.732 29.5652 17.704 26.9949 15.5016C24.4245 13.2992 21.1681 12.0595 17.7838 11.995C14.3996 11.9305 11.0983 13.0453 8.44588 15.1482C5.7935 17.2511 3.95522 20.2112 3.2462 23.5209L2.18745 29.5001H4.37495C6.99347 29.484 9.57569 28.8863 11.9349 27.7501C11.7622 28.0629 11.67 28.4137 11.6666 28.7709C11.6646 29.1957 11.7863 29.6118 12.0169 29.9686C12.2475 30.3253 12.5769 30.6072 12.965 30.7798C13.3531 30.9525 13.783 31.0084 14.2023 30.9408C14.6217 30.8731 15.0123 30.6849 15.3264 30.399C15.6405 30.1131 15.8647 29.742 15.9714 29.3309C16.0781 28.9197 16.0629 28.4864 15.9275 28.0838C15.7921 27.6812 15.5424 27.3268 15.2089 27.0637C14.8754 26.8006 14.4726 26.6403 14.0495 26.6024C17.161 24.6611 19.796 22.045 21.7597 18.9476C20.901 18.4709 19.9675 18.1435 18.9991 17.9793C16.7562 21.3028 11.9831 25.9461 5.67724 26.5236L6.10745 24.0897C6.70285 21.3874 8.23937 18.9847 10.4427 17.3106C12.6459 15.6365 15.3725 14.8001 18.1356 14.9506C20.8986 15.1012 23.5182 16.2289 25.5265 18.1324C27.5349 20.036 28.8013 22.5914 29.0995 25.3424L29.2133 26.4303L30.2895 26.6243C30.8209 26.7282 31.2948 27.0255 31.6196 27.4586C31.9445 27.8917 32.0972 28.4298 32.0482 28.969C31.9992 29.5082 31.752 30.01 31.3544 30.3775C30.9569 30.745 30.4371 30.952 29.8958 30.9584C29.7704 30.9584 28.3106 30.7032 28.3106 30.7032L27.8993 31.8699C26.562 35.6572 22.0645 39.7084 17.4999 39.7084C13.3277 39.7084 9.21953 36.3207 7.52203 32.8543L6.77828 37.0528C8.16505 38.7527 9.88334 40.1524 11.8285 41.1668H11.6666V44.0834H4.72203C4.45126 44.0825 4.18414 44.0209 3.94033 43.9031C3.69653 43.7853 3.48223 43.6143 3.31322 43.4028C3.1442 43.1912 3.02477 42.9445 2.9637 42.6807C2.90264 42.4169 2.9015 42.1427 2.96036 41.8784L4.63745 32.3993C4.54995 32.3993 4.46391 32.4153 4.37495 32.4153H1.67266L0.0947387 41.3345C-0.0451434 42.0204 -0.0307598 42.7289 0.136848 43.4086C0.304456 44.0883 0.621095 44.7222 1.06384 45.2645C1.50659 45.8068 2.06437 46.2438 2.69681 46.544C3.32925 46.8442 4.02051 47 4.72057 47.0001H14.5833V42.2372C16.4933 42.7544 18.5066 42.7544 20.4166 42.2372V47.0001H30.2779C30.9991 47.0023 31.7111 46.8382 32.3586 46.5205C33.006 46.2028 33.5716 45.7402 34.0112 45.1684C34.4461 44.6167 34.7496 43.9731 34.8987 43.2866C35.0477 42.6001 35.0385 41.8886 34.8716 41.2062ZM31.7041 43.3834C31.5362 43.6019 31.3202 43.7787 31.0728 43.9001C30.8254 44.0215 30.5534 44.0842 30.2779 44.0834H23.3333V41.0997C26.3435 39.4814 28.7604 36.947 30.2341 33.8634C30.3581 33.8561 30.4747 33.8211 30.5958 33.8051L32.0235 41.8259C32.0939 42.0926 32.1017 42.3719 32.0463 42.6421C31.9909 42.9123 31.8738 43.166 31.7041 43.3834ZM21.1458 30.9584C20.7131 30.9584 20.2902 30.8301 19.9305 30.5898C19.5707 30.3494 19.2904 30.0078 19.1248 29.6081C18.9592 29.2083 18.9159 28.7685 19.0003 28.3442C19.0847 27.9198 19.2931 27.5301 19.599 27.2241C19.9049 26.9182 20.2947 26.7099 20.719 26.6255C21.1434 26.5411 21.5832 26.5844 21.9829 26.75C22.3826 26.9155 22.7243 27.1959 22.9646 27.5556C23.205 27.9154 23.3333 28.3383 23.3333 28.7709C23.3333 29.3511 23.1028 29.9075 22.6926 30.3177C22.2823 30.728 21.7259 30.9584 21.1458 30.9584Z" fill="#374957"/>
</g>
<defs>
<clipPath id="clip0_4_191">
<rect width="35" height="35" fill="white" transform="translate(0 12)"/>
</clipPath>
</defs>
</svg>
